<svg xmlns="http://www.w3.org/2000/svg" viewBox="0 0 124.91 124.91"><defs><style>.cls-1{fill:#231f20;}</style></defs><title>icon-map-location</title><g id="Layer_2" data-name="Layer 2"><g id="Layer_1-2" data-name="Layer 1"><path class="cls-1" d="M123.64,66.48,92.42,54.77a2,2,0,0,0-1.41,0l-9.76,3.9,1.45,3.63,7.08-2.83v50.44L64.41,120.07V105.39H60.5v14.68L35.13,109.93V59.48l7.08,2.83,1.45-3.62-9.76-3.9a2,2,0,0,0-1.41,0L1.27,66.48A2,2,0,0,0,0,68.31V123a2,2,0,0,0,2.64,1.83l30.52-11.45,28.57,11.43a1.94,1.94,0,0,0,1.45,0l28.57-11.43,30.52,11.45a2,2,0,0,0,2.64-1.83V68.31A2,2,0,0,0,123.64,66.48ZM3.9,69.66,31.23,59.42v50.48L3.9,120.14ZM121,120.14,93.68,109.89V59.42L121,69.66Z"/><path class="cls-1" d="M62.45,78.07a2,2,0,0,0,1.58-.8c1.05-1.44,25.75-35.46,25.75-49.94a27.32,27.32,0,1,0-54.65,0c0,14.48,24.7,48.5,25.75,49.94A2,2,0,0,0,62.45,78.07Zm0-74.16A23.45,23.45,0,0,1,85.87,27.32c0,11.25-17.93,37.62-23.42,45.43C57,64.94,39,38.57,39,27.32A23.45,23.45,0,0,1,62.45,3.9Z"/><path class="cls-1" d="M78.07,27.32A15.61,15.61,0,1,0,62.45,42.94,15.63,15.63,0,0,0,78.07,27.32Zm-27.32,0A11.71,11.71,0,1,1,62.45,39,11.72,11.72,0,0,1,50.74,27.32Z"/><rect class="cls-1" x="60.5" y="81.97" width="3.9" height="3.9"/><rect class="cls-1" x="60.5" y="89.78" width="3.9" height="3.9"/><rect class="cls-1" x="60.5" y="97.58" width="3.9" height="3.9"/></g></g></svg>