<svg xmlns="http://www.w3.org/2000/svg" viewBox="0 0 124.91 124.91"><defs><style>.cls-1{fill:#231f20;}</style></defs><title>icon-fraud-detection</title><g id="Layer_2" data-name="Layer 2"><g id="Layer_1-2" data-name="Layer 1"><rect class="cls-1" x="11.71" y="46.84" width="3.9" height="3.9"/><rect class="cls-1" x="19.52" y="46.84" width="3.9" height="3.9"/><rect class="cls-1" x="27.32" y="46.84" width="3.9" height="3.9"/><rect class="cls-1" x="35.13" y="46.84" width="3.9" height="3.9"/><rect class="cls-1" x="46.84" y="46.84" width="3.9" height="3.9"/><rect class="cls-1" x="11.71" y="54.65" width="27.32" height="3.9"/><rect class="cls-1" x="42.94" y="54.65" width="7.81" height="3.9"/><rect class="cls-1" x="101.49" y="11.71" width="3.9" height="3.9"/><path class="cls-1" d="M23.42,31.23h3.9v3.9h7.81v-3.9h-3.9v-3.9h3.9v-3.9h-3.9v-3.9h3.9v-3.9H27.32v3.9h-3.9v-3.9H15.61v3.9h3.9v3.9h-3.9v3.9h3.9v3.9h-3.9v3.9h7.81Zm0-7.81h3.9v3.9h-3.9Z"/><path class="cls-1" d="M117.1,46.26V3.9A3.91,3.91,0,0,0,113.2,0H3.9A3.91,3.91,0,0,0,0,3.9V66.36a3.91,3.91,0,0,0,3.9,3.9H54.7A35.19,35.19,0,0,0,82,102.55v22.35h3.9V111.25h7.81v13.66h3.9V102.55A35.09,35.09,0,0,0,117.1,46.26ZM3.9,66.36V3.9H113.2V42.15A35.1,35.1,0,0,0,54.7,66.36Zm89.78,41H85.87v-4.13a34.44,34.44,0,0,0,7.81,0Zm-3.9-7.81A31.26,31.26,0,0,1,58.62,70.26h3.91a27.32,27.32,0,0,0,54.57-2v-2h-3.9v2a23.42,23.42,0,0,1-46.75,2H83.92v-3.9H66.45A23.45,23.45,0,0,1,89.78,44.89V41A27.35,27.35,0,0,0,62.53,66.36H58.62A31.2,31.2,0,0,1,113.2,47.69V62.45h3.9V53.21A31.21,31.21,0,0,1,89.78,99.54Z"/><rect class="cls-1" x="39.03" y="15.61" width="3.9" height="3.9"/><rect class="cls-1" x="87.83" y="66.36" width="3.9" height="3.9"/><rect class="cls-1" x="95.63" y="66.36" width="3.9" height="3.9"/><polygon class="cls-1" points="28.47 87.83 18.14 98.16 20.9 100.92 33.99 87.83 31.22 85.06 42.32 82.59 39.85 93.69 37.08 90.92 16.18 111.82 18.95 114.58 37.08 96.44 42.12 101.48 47.46 77.45 23.43 82.79 28.47 87.83"/></g></g></svg>