<svg xmlns="http://www.w3.org/2000/svg" viewBox="0 0 123.27 123.27"><defs><style>.cls-1{fill:#231f20;}</style></defs><title>icon-market-prediction</title><g id="Layer_2" data-name="Layer 2"><g id="Layer_1-2" data-name="Layer 1"><polygon class="cls-1" points="123.27 111.71 11.56 111.71 11.56 0 7.7 0 7.7 111.71 0 111.71 0 115.56 7.7 115.56 7.7 123.27 11.56 123.27 11.56 115.56 123.27 115.56 123.27 111.71"/><rect class="cls-1" x="18" y="77.04" width="21.79" height="3.85" transform="translate(-47.38 43.56) rotate(-45)"/><rect class="cls-1" x="15.41" y="104.01" width="3.85" height="3.85"/><rect class="cls-1" x="23.11" y="104.01" width="3.85" height="3.85"/><rect class="cls-1" x="30.82" y="104.01" width="3.85" height="3.85"/><rect class="cls-1" x="38.52" y="104.01" width="3.85" height="3.85"/><rect class="cls-1" x="46.22" y="104.01" width="3.85" height="3.85"/><rect class="cls-1" x="53.93" y="104.01" width="3.85" height="3.85"/><rect class="cls-1" x="61.63" y="104.01" width="3.85" height="3.85"/><rect class="cls-1" x="69.34" y="104.01" width="3.85" height="3.85"/><rect class="cls-1" x="77.04" y="104.01" width="3.85" height="3.85"/><rect class="cls-1" x="84.75" y="104.01" width="3.85" height="3.85"/><rect class="cls-1" x="92.45" y="104.01" width="3.85" height="3.85"/><rect class="cls-1" x="100.15" y="104.01" width="3.85" height="3.85"/><rect class="cls-1" x="107.86" y="104.01" width="3.85" height="3.85"/><path class="cls-1" d="M80.1,52H53.93a1.93,1.93,0,0,0-1.36.56l-7.7,7.7L47.59,63l7.14-7.14H80.89a1.93,1.93,0,0,0,1.36-.56l25.6-25.6v5h3.85V25a1.93,1.93,0,0,0-1.93-1.93h-9.63V27h5Z"/><path class="cls-1" d="M54.49,38a1.93,1.93,0,0,0,2.72,0l11-11H80.1L89.16,36l2.72-2.72-9.63-9.63a1.93,1.93,0,0,0-1.36-.56H67.41a1.93,1.93,0,0,0-1.36.56L55.85,33.87,45.66,23.68a1.93,1.93,0,0,0-1.36-.56h-25V27H43.5Z"/><path class="cls-1" d="M100.15,55.85h9.63a1.93,1.93,0,0,0,1.93-1.93V44.3h-3.85v5l-6.34-6.34-2.72,2.72L105.13,52h-5Z"/><path class="cls-1" d="M111.15,79.53l-7.7-7.7-2.72,2.72L105.13,79H83.62L70.7,66A1.93,1.93,0,0,0,68,66L55.85,78.17,22.55,44.86l-2.72,2.72L54.49,82.25a1.92,1.92,0,0,0,2.72,0L69.34,70.13,81.46,82.25a1.93,1.93,0,0,0,1.36.56h22.31l-4.42,4.42L103.44,90l7.7-7.7A1.92,1.92,0,0,0,111.15,79.53Z"/></g></g></svg>