<svg xmlns="http://www.w3.org/2000/svg" viewBox="0 0 109.29 124.91"><defs><style>.cls-1{fill:#231f20;}</style></defs><title>icon-account</title><g id="Layer_2" data-name="Layer 2"><g id="Layer_1-2" data-name="Layer 1"><path class="cls-1" d="M0,124.91H89.78V0H0ZM3.9,3.9h82V121H3.9Z"/><path class="cls-1" d="M7.81,31.23H82V7.81H7.81Zm3.9-19.52H78.07V27.32H11.71Z"/><rect class="cls-1" x="70.26" y="17.57" width="3.9" height="3.9"/><rect class="cls-1" x="62.45" y="17.57" width="3.9" height="3.9"/><rect class="cls-1" x="54.65" y="17.57" width="3.9" height="3.9"/><rect class="cls-1" x="46.84" y="17.57" width="3.9" height="3.9"/><rect class="cls-1" x="39.03" y="17.57" width="3.9" height="3.9"/><path class="cls-1" d="M66.36,117.1H82V82H66.36Zm3.9-31.23h7.81V113.2H70.26Z"/><path class="cls-1" d="M7.81,58.55H23.42V42.94H7.81Zm3.9-11.71h7.81v7.81H11.71Z"/><path class="cls-1" d="M27.32,58.55H42.94V42.94H27.32Zm3.9-11.71H39v7.81H31.23Z"/><path class="cls-1" d="M46.84,58.55H62.45V42.94H46.84Zm3.9-11.71h7.81v7.81H50.74Z"/><path class="cls-1" d="M66.36,58.55H82V42.94H66.36Zm3.9-11.71h7.81v7.81H70.26Z"/><path class="cls-1" d="M7.81,78.07H23.42V62.45H7.81Zm3.9-11.71h7.81v7.81H11.71Z"/><path class="cls-1" d="M27.32,78.07H42.94V62.45H27.32Zm3.9-11.71H39v7.81H31.23Z"/><path class="cls-1" d="M46.84,78.07H62.45V62.45H46.84Zm3.9-11.71h7.81v7.81H50.74Z"/><path class="cls-1" d="M66.36,78.07H82V62.45H66.36Zm3.9-11.71h7.81v7.81H70.26Z"/><path class="cls-1" d="M7.81,97.58H23.42V82H7.81Zm3.9-11.71h7.81v7.81H11.71Z"/><path class="cls-1" d="M27.32,97.58H42.94V82H27.32Zm3.9-11.71H39v7.81H31.23Z"/><path class="cls-1" d="M46.84,97.58H62.45V82H46.84Zm3.9-11.71h7.81v7.81H50.74Z"/><path class="cls-1" d="M7.81,117.1H23.42V101.49H7.81Zm3.9-11.71h7.81v7.81H11.71Z"/><path class="cls-1" d="M27.32,117.1H42.94V101.49H27.32Zm3.9-11.71H39v7.81H31.23Z"/><path class="cls-1" d="M46.84,117.1H62.45V101.49H46.84Zm3.9-11.71h7.81v7.81H50.74Z"/><rect class="cls-1" x="7.81" y="35.13" width="74.16" height="3.9"/><path class="cls-1" d="M93.68,0V113.2a1.94,1.94,0,0,0,.28,1L99.81,124a2,2,0,0,0,3.35,0L109,114.2a1.94,1.94,0,0,0,.28-1V0Zm11.71,112.66-3.9,6.51-3.9-6.51v-5.31h7.81Zm0-9.22H97.58V83.92h7.81Zm0-23.42H97.58V13.66h7.81Zm0-70.26H97.58V3.9h7.81Z"/></g></g></svg>