<svg xmlns="http://www.w3.org/2000/svg" viewBox="0 0 123.27 123.27"><defs><style>.cls-1{fill:#231f20;}</style></defs><title>icon-budget-accounting</title><g id="Layer_2" data-name="Layer 2"><g id="Layer_1-2" data-name="Layer 1"><path class="cls-1" d="M48.72,104.57l-6.34,6.34-7.7-7.7v-82a9.57,9.57,0,0,0-1.94-5.78h73.21a5.78,5.78,0,0,1,5.78,5.78V34.67h3.85V21.19a9.64,9.64,0,0,0-9.63-9.63H25a9.64,9.64,0,0,0-9.63,9.63V79A5.78,5.78,0,1,1,3.85,79V3.85h77V7.7h3.85V1.93A1.92,1.92,0,0,0,82.82,0H1.93A1.93,1.93,0,0,0,0,1.93V79A9.64,9.64,0,0,0,9.63,88.6H27V84.75H17.32A9.57,9.57,0,0,0,19.26,79V21.19a5.78,5.78,0,0,1,11.56,0V104a1.92,1.92,0,0,0,.56,1.36L41,115a1.93,1.93,0,0,0,2.72,0l6.34-6.34L56.42,115l2.72-2.72-7.7-7.7A1.92,1.92,0,0,0,48.72,104.57Z"/><rect class="cls-1" x="57.78" y="61.63" width="3.85" height="26.96"/><rect class="cls-1" x="50.08" y="69.34" width="3.85" height="19.26"/><rect class="cls-1" x="42.37" y="53.93" width="3.85" height="34.67"/><path class="cls-1" d="M121.34,38.52H67.41a1.92,1.92,0,0,0-1.93,1.93v80.89a1.92,1.92,0,0,0,1.93,1.93h53.93a1.93,1.93,0,0,0,1.93-1.93V40.45A1.93,1.93,0,0,0,121.34,38.52Zm-1.93,80.89H69.34v-77h50.08Z"/><rect class="cls-1" x="73.19" y="57.78" width="42.37" height="3.85"/><rect class="cls-1" x="73.19" y="46.22" width="42.37" height="3.85"/><path class="cls-1" d="M75.12,84.75h7.7a1.92,1.92,0,0,0,1.93-1.93v-7.7a1.92,1.92,0,0,0-1.93-1.93h-7.7a1.92,1.92,0,0,0-1.93,1.93v7.7A1.92,1.92,0,0,0,75.12,84.75ZM77,77h3.85v3.85H77Z"/><path class="cls-1" d="M98.23,73.19h-7.7a1.92,1.92,0,0,0-1.93,1.93v7.7a1.92,1.92,0,0,0,1.93,1.93h7.7a1.93,1.93,0,0,0,1.93-1.93v-7.7A1.93,1.93,0,0,0,98.23,73.19Zm-1.93,7.7H92.45V77H96.3Z"/><path class="cls-1" d="M113.64,73.19h-7.7A1.92,1.92,0,0,0,104,75.12v7.7a1.92,1.92,0,0,0,1.93,1.93h7.7a1.93,1.93,0,0,0,1.93-1.93v-7.7A1.93,1.93,0,0,0,113.64,73.19Zm-1.93,7.7h-3.85V77h3.85Z"/><path class="cls-1" d="M75.12,100.15h7.7a1.92,1.92,0,0,0,1.93-1.93v-7.7a1.92,1.92,0,0,0-1.93-1.93h-7.7a1.92,1.92,0,0,0-1.93,1.93v7.7A1.92,1.92,0,0,0,75.12,100.15ZM77,92.45h3.85V96.3H77Z"/><path class="cls-1" d="M98.23,88.6h-7.7a1.92,1.92,0,0,0-1.93,1.93v7.7a1.92,1.92,0,0,0,1.93,1.93h7.7a1.93,1.93,0,0,0,1.93-1.93v-7.7A1.93,1.93,0,0,0,98.23,88.6ZM96.3,96.3H92.45V92.45H96.3Z"/><path class="cls-1" d="M113.64,88.6h-7.7A1.92,1.92,0,0,0,104,90.52v7.7a1.92,1.92,0,0,0,1.93,1.93h7.7a1.93,1.93,0,0,0,1.93-1.93v-7.7A1.93,1.93,0,0,0,113.64,88.6Zm-1.93,7.7h-3.85V92.45h3.85Z"/><path class="cls-1" d="M75.12,115.56h7.7a1.92,1.92,0,0,0,1.93-1.93v-7.7A1.92,1.92,0,0,0,82.82,104h-7.7a1.92,1.92,0,0,0-1.93,1.93v7.7A1.92,1.92,0,0,0,75.12,115.56Zm1.93-7.7h3.85v3.85H77Z"/><path class="cls-1" d="M98.23,104h-7.7a1.92,1.92,0,0,0-1.93,1.93v7.7a1.92,1.92,0,0,0,1.93,1.93h7.7a1.93,1.93,0,0,0,1.93-1.93v-7.7A1.93,1.93,0,0,0,98.23,104Zm-1.93,7.7H92.45v-3.85H96.3Z"/><path class="cls-1" d="M113.64,104h-7.7a1.92,1.92,0,0,0-1.93,1.93v7.7a1.92,1.92,0,0,0,1.93,1.93h7.7a1.93,1.93,0,0,0,1.93-1.93v-7.7A1.93,1.93,0,0,0,113.64,104Zm-1.93,7.7h-3.85v-3.85h3.85Z"/><rect class="cls-1" x="104.01" y="65.48" width="11.56" height="3.85"/><rect class="cls-1" x="107.86" y="52" width="3.85" height="3.85"/><rect class="cls-1" x="100.15" y="52" width="3.85" height="3.85"/><rect class="cls-1" x="92.45" y="52" width="3.85" height="3.85"/><rect class="cls-1" x="84.75" y="52" width="3.85" height="3.85"/><rect class="cls-1" x="42.37" y="92.45" width="19.26" height="3.85"/><path class="cls-1" d="M46.22,27h53.93v7.7H104V25a1.93,1.93,0,0,0-1.93-1.93H44.3A1.92,1.92,0,0,0,42.37,25V40.45a1.92,1.92,0,0,0,1.93,1.93H61.63V38.52H46.22Z"/><rect class="cls-1" x="50.08" y="30.82" width="19.26" height="3.85"/></g></g></svg>